<?xml version="1.0" standalone="no"?>
<!DOCTYPE svg PUBLIC "-//W3C//DTD SVG 20010904//EN"
 "http://www.w3.org/TR/2001/REC-SVG-20010904/DTD/svg10.dtd">
<svg version="1.0" xmlns="http://www.w3.org/2000/svg"
 width="1000.000000pt" height="1000.000000pt" viewBox="0 0 1000.000000 1000.000000"
 preserveAspectRatio="xMidYMid meet">
<metadata>
Created by potrace 1.11, written by Peter Selinger 2001-2013
</metadata>
<g transform="translate(0.000000,1000.000000) scale(0.100000,-0.100000)"
fill="#000000" stroke="none">
<path d="M4880 9798 c0 -21 20 -35 140 -99 l139 -74 2 -37 c1 -46 1 -13 0
-530 l-1 -423 -50 -28 c-52 -28 -105 -91 -127 -150 -21 -59 -16 -147 13 -205
81 -162 313 -131 400 53 32 67 33 170 3 232 -24 51 -78 91 -131 99 l-38 7 0
496 0 496 -167 90 c-92 50 -170 92 -175 93 -4 2 -8 -7 -8 -20z"/>
<path d="M4350 8450 c0 -5 17 -10 38 -10 27 0 33 3 22 10 -20 13 -60 13 -60 0z"/>
<path d="M4350 8421 c0 -7 26 -11 65 -11 36 0 65 4 65 8 0 5 -29 10 -65 11
-40 1 -65 -2 -65 -8z"/>
<path d="M4351 8350 l2 -50 165 0 c91 0 163 2 161 4 -2 2 -43 24 -90 50 -81
43 -91 46 -163 46 l-76 0 1 -50z"/>
<path d="M4351 7902 l-2 -388 76 -39 c41 -22 75 -42 75 -45 0 -3 -24 -14 -52
-24 -163 -56 -411 -199 -583 -336 -404 -323 -718 -846 -818 -1365 -21 -109
-47 -332 -47 -405 0 -14 19 -30 68 -54 114 -58 116 -62 41 -70 -119 -13 -112
-6 -105 -105 24 -322 78 -537 196 -771 140 -278 362 -518 618 -663 71 -40 73
-43 67 -72 -37 -173 -44 -335 -20 -470 8 -43 13 -80 12 -80 -39 -19 -184 -117
-274 -184 -734 -553 -1202 -1435 -1248 -2356 l-7 -130 180 -97 179 -96 299 41
299 42 7 110 c34 492 192 920 484 1311 190 254 452 486 711 630 52 28 53 29
80 11 16 -10 57 -33 93 -51 327 -169 765 -91 1068 189 l59 55 91 -29 c105 -33
168 -78 299 -214 268 -279 434 -648 473 -1052 6 -60 14 -141 18 -178 l7 -69
173 -94 174 -94 305 42 305 42 -6 126 c-19 342 -85 633 -207 919 -237 553
-687 981 -1232 1172 l-69 24 6 35 c31 179 31 314 0 469 l-17 83 39 30 c71 57
289 282 350 363 155 203 295 460 368 672 75 217 126 489 126 667 l0 82 -58 28
c-32 15 -68 36 -81 45 l-24 18 59 7 c32 4 70 10 83 13 l24 6 -6 131 c-23 506
-261 985 -632 1270 -108 84 -125 94 -400 243 -301 164 -402 206 -508 211 -186
10 -545 -55 -754 -135 -10 -4 -13 95 -13 481 l0 486 -174 0 -174 0 -1 -388z
m1232 -1258 c77 -17 79 -18 149 -93 189 -202 295 -452 316 -747 l7 -98 85 -45
85 -45 -40 -7 c-22 -4 -61 -10 -86 -14 l-46 -6 -7 -92 c-31 -402 -218 -784
-516 -1052 -115 -103 -102 -100 -194 -55 -154 75 -322 103 -491 81 -169 -23
-360 -103 -496 -207 l-68 -53 -44 52 c-156 185 -266 474 -267 697 0 87 -4 93
-91 139 -43 23 -79 44 -79 46 0 1 38 8 85 15 l85 12 0 68 c0 93 33 276 70 389
128 392 413 731 763 907 92 47 254 100 358 119 107 18 315 13 422 -11z"/>
<path d="M4815 6265 c-288 -54 -532 -277 -635 -578 -27 -80 -53 -213 -44 -229
2 -3 48 -30 102 -59 53 -29 92 -54 87 -55 -6 -1 -49 -8 -97 -14 l-88 -12 0
-32 c0 -107 85 -305 167 -391 65 -68 101 -94 223 -160 58 -31 128 -70 156 -86
l52 -29 -64 65 c-47 48 -75 88 -108 157 -52 108 -95 287 -68 288 4 0 64 9 133
19 119 18 131 18 195 3 107 -25 675 -24 794 1 147 32 270 90 306 145 18 28 30
135 20 176 -3 14 -19 40 -34 58 -15 18 -33 56 -40 83 -24 96 -89 212 -161 284
-69 70 -135 113 -396 254 -152 82 -201 101 -297 117 -79 12 -115 12 -203 -5z"/>
</g>
</svg>
